<svg width="653" height="385" viewBox="0 0 653 385" fill="none" xmlns="http://www.w3.org/2000/svg">
<path d="M176.306 318.992C176.306 354.857 193.734 383.835 215.168 383.835H254.03C275.465 383.835 292.692 354.62 292.692 318.992C292.692 283.126 275.264 254.148 253.83 254.148C253.429 254.148 253.229 254.148 252.828 254.148H215.168C193.533 254.148 176.306 283.364 176.306 318.992Z" fill="#442B2B"/>
<path d="M480.794 318.279C480.794 354.145 498.222 383.123 519.656 383.123H558.519C579.953 383.123 597.181 353.907 597.181 318.279C597.181 282.413 579.753 253.436 558.318 253.436C557.918 253.436 557.717 253.436 557.317 253.436H519.656C498.022 253.436 480.794 282.413 480.794 318.279Z" fill="#402B2B"/>
<path d="M-14 222.558L-2.18104 191.205H33.2758L33.6765 309.966L-13.7997 310.203L-14 222.558Z" fill="black"/>
<path d="M173.7 312.816L330.151 312.341L312.122 299.752L193.732 299.99L173.7 312.816Z" fill="#442B2B"/>
<path d="M26.0635 207.119L26.2638 326.117L153.268 325.88L193.732 299.99L312.122 299.752L348.581 325.405L606.996 324.692C611.202 324.692 614.608 320.654 614.608 315.666L614.407 205.694L26.0635 207.119Z" fill="#822626"/>
<path d="M302.909 234.196L505.634 233.721L505.233 15.9139C505.233 7.12562 499.224 -5.72205e-05 491.611 -5.72205e-05L302.308 0.475015L302.909 234.196Z" fill="#EF5F53"/>
<path d="M-13.1985 235.147L302.708 234.434L302.308 0.712609L-0.177599 1.42515C-7.58949 1.42515 -13.5991 8.55077 -13.5991 17.5766L-13.1985 235.147Z" fill="#F39476"/>
<path d="M455.154 318.279C455.154 354.145 437.926 383.123 416.492 383.123H377.83V361.271C363.607 361.271 351.988 342.031 351.988 318.279C351.988 294.527 363.407 275.288 377.629 275.288V253.436H416.291C437.726 253.673 454.953 282.651 455.154 318.279Z" fill="#402B2B"/>
<path d="M345.777 318.754C345.777 348.207 360 371.959 377.628 371.722C395.257 371.722 409.279 347.969 409.279 318.517C409.279 289.064 395.056 265.312 377.428 265.549C360 265.549 345.777 289.302 345.777 318.754Z" fill="#4B2A2A"/>
<path opacity="0.32" d="M377.628 353.67C389.247 353.67 398.462 337.993 398.462 318.517C398.462 299.04 389.047 283.601 377.428 283.601C365.81 283.601 356.595 299.277 356.595 318.754C356.595 338.231 366.01 353.67 377.628 353.67ZM377.628 297.852C384.439 297.852 390.048 307.116 390.048 318.517C390.048 329.918 384.439 339.418 377.628 339.418C370.818 339.418 365.209 330.155 365.209 318.754C365.209 307.116 370.617 297.852 377.628 297.852Z" fill="#E14841"/>
<path d="M377.628 383.36C399.062 383.36 416.29 354.145 416.29 318.517C416.29 282.888 398.862 253.673 377.428 253.673C355.993 253.673 338.766 282.888 338.766 318.517C338.766 354.145 356.394 383.598 377.628 383.36ZM377.428 265.549C395.056 265.549 409.279 289.301 409.279 318.517C409.279 347.969 395.256 371.722 377.628 371.722C360 371.722 345.777 347.969 345.777 318.754C345.777 289.301 360 265.549 377.428 265.549Z" fill="#402B2B"/>
<path opacity="0.32" d="M372.221 318.517C372.221 313.529 374.625 309.728 377.429 309.728C380.234 309.728 382.637 313.766 382.838 318.517C382.838 323.505 380.434 327.305 377.629 327.305C374.625 327.542 372.221 323.505 372.221 318.517Z" fill="#E14841"/>
<path d="M150.464 319.229C150.464 355.095 133.237 384.073 111.802 384.073H73.1403V362.221C58.9175 362.221 47.2988 342.981 47.2988 319.229C47.2988 295.477 58.7172 276.238 72.94 276.238V254.386H111.602C133.036 254.386 150.464 283.363 150.464 319.229Z" fill="black"/>
<path d="M639.85 140.851C639.85 141.801 640.451 142.513 641.052 142.751C642.655 143.226 648.664 143.226 650.467 142.513C651.269 142.276 652.07 141.563 652.07 140.375C652.671 121.374 652.671 102.847 652.07 85.2705C652.07 84.0829 651.269 83.3703 650.467 83.1328C648.464 82.4202 641.453 81.9452 639.249 82.8952C638.448 83.1328 637.847 84.0829 637.847 85.033C637.447 103.085 638.047 121.611 639.85 140.851Z" fill="#CD2827"/>
<path d="M630.034 157.715C630.234 157.715 630.435 157.715 630.835 157.477L644.457 149.401C647.662 147.501 649.666 143.701 649.666 139.425L649.465 79.8074C649.465 77.4322 647.863 75.5321 645.86 75.5321H608.399C607.398 75.5321 606.797 76.4821 606.797 77.4322C606.797 78.6198 607.598 79.3323 608.399 79.3323H645.86C646.06 79.3323 646.06 79.5699 646.06 79.5699L646.26 139.188C646.26 142.038 644.858 144.413 642.855 145.601L629.233 153.677C628.432 154.152 628.031 155.339 628.432 156.289C628.832 157.477 629.433 157.715 630.034 157.715Z" fill="#822626"/>
<path d="M330.152 233.721C330.152 233.721 335.36 233.721 343.373 233.721H375.224C399.062 233.721 404.671 247.735 419.295 282.176L465.569 281.938C465.569 281.938 465.569 277.9 465.569 271.012L642.253 270.537C643.054 253.198 644.656 218.045 644.656 184.792C644.656 183.604 644.656 182.654 644.656 181.467C644.656 171.966 643.254 161.515 640.85 151.064C631.435 110.21 607.597 66.7436 597.781 50.8297C594.576 45.6042 591.772 41.0913 589.368 37.0534C582.557 26.365 577.949 20.902 569.336 20.902L355.192 21.6145C350.785 21.6145 346.779 25.1774 345.577 30.1653C327.147 110.448 329.952 171.491 330.152 233.721ZM510.641 49.8796C510.441 48.692 511.242 47.7419 512.244 47.7419L577.348 47.5044C581.155 47.5044 584.961 49.8796 587.365 53.9175C612.805 95.0087 623.022 132.537 626.828 154.152L630.834 176.954C631.435 180.279 629.632 182.892 626.828 182.892H611.002C608.398 182.892 605.594 181.467 603.591 179.091L571.138 142.275C567.533 138.238 562.725 135.862 558.118 135.862H519.255L510.641 49.8796Z" fill="#CD2827"/>
<path d="M476.987 151.776C478.39 159.377 479.992 167.215 481.394 175.529C482.396 181.229 486.603 185.267 491.41 185.505C554.712 188.117 607.196 188.355 644.656 185.029C644.656 183.842 644.656 182.892 644.656 181.704C644.656 172.203 643.254 161.752 640.85 151.301L476.987 151.776Z" fill="#822626"/>
<path opacity="0.75" d="M359.999 47.9795L425.104 47.7419C428.91 47.7419 432.315 50.1172 434.118 54.155C452.347 95.2463 456.154 132.775 456.154 154.389V177.191C456.154 180.517 453.95 183.129 451.146 183.129H435.32C432.716 183.129 430.112 181.704 428.509 179.329L402.467 142.513C399.463 138.475 395.256 135.863 390.649 136.1H351.786L357.996 50.1171C357.996 48.9295 358.797 47.9795 359.999 47.9795Z" fill="#402B2B"/>
<path d="M330.152 233.721C330.152 233.721 335.36 233.721 343.373 233.721H375.224C399.062 233.721 404.671 247.735 419.295 282.176L465.569 281.938C465.569 281.938 465.569 277.9 465.569 271.012L642.253 270.537C643.054 253.198 644.656 218.045 644.656 184.792C607.196 188.117 554.512 188.117 491.411 185.267C486.603 185.029 482.396 180.992 481.394 175.291C479.992 166.978 478.39 158.902 476.987 151.539C468.374 108.072 458.959 76.9571 446.539 43.229C445.537 40.6163 447.14 37.5285 449.543 37.5285L589.368 37.0534C582.557 26.365 577.949 20.902 569.336 20.902L355.192 21.6145C350.785 21.6145 346.779 25.1774 345.577 30.1653C327.147 110.448 329.952 171.491 330.152 233.721ZM351.586 136.1L357.796 50.1171C357.796 48.9295 358.798 47.9794 359.799 47.9794L424.904 47.7419C428.71 47.7419 432.115 50.1171 433.918 54.155C452.148 95.2463 455.954 132.775 455.954 154.389V177.191C455.954 180.516 453.75 183.129 450.946 183.129H435.12C432.516 183.129 429.912 181.704 428.309 179.329L402.268 142.513C399.263 138.475 395.056 135.862 390.449 136.1H351.586Z" fill="url(#paint0_linear_954_3988)"/>
<path d="M337.965 227.546C337.965 231.109 340.369 233.721 343.374 233.721H375.225C399.063 233.721 404.672 247.735 419.295 282.176L465.57 281.938C465.57 281.938 465.57 277.9 465.57 271.012L465.369 174.816C465.369 127.074 458.158 96.909 439.127 49.1672C436.323 42.0415 430.113 37.5286 423.502 37.5286L354.592 37.7661C352.989 37.7661 351.787 38.9537 351.386 40.6164C337.765 101.897 337.764 201.656 337.965 227.546ZM351.587 136.1L357.797 50.1172C357.797 48.9296 358.798 47.9795 359.8 47.9795L424.904 47.742C428.71 47.742 432.116 50.1173 433.919 54.1551C452.148 95.2463 455.954 132.775 455.954 154.389V177.191C455.954 180.517 453.751 183.129 450.946 183.129H435.121C432.517 183.129 429.912 181.704 428.31 179.329L402.268 142.513C399.263 138.475 395.056 135.863 390.449 136.1H351.587Z" fill="url(#paint1_linear_954_3988)"/>
<path d="M360.4 50.8297L425.104 50.5922C427.908 50.5922 430.512 52.4924 431.915 55.3427C450.745 97.8591 453.75 135.625 453.75 154.152V176.954C453.75 178.616 452.548 180.042 451.146 180.042H435.32C433.317 180.042 431.514 179.091 430.312 177.429L404.27 140.613C400.865 135.863 395.857 133.012 390.448 133.012H354.39L360.4 50.8297ZM359.999 47.9795C358.998 47.9795 357.996 48.9295 357.996 50.1171L351.786 136.1H390.649C395.256 136.1 399.463 138.475 402.467 142.513L428.509 179.329C430.112 181.704 432.716 183.129 435.32 183.129H451.146C453.95 183.129 456.154 180.517 456.154 177.191V154.389C456.154 132.775 452.347 95.2463 434.118 54.155C432.315 50.1172 428.91 47.7419 425.104 47.7419L359.999 47.9795Z" fill="#822626"/>
<path opacity="0.4" d="M465.369 225.646V271.012L535.281 270.775C534.48 258.899 532.677 247.498 529.672 236.809C528.47 232.534 525.466 229.446 521.659 228.733C506.235 226.596 486.603 225.646 465.369 225.646ZM606.796 270.775H641.452C642.053 260.799 642.654 244.647 643.255 226.358C634.841 226.833 627.029 227.783 620.017 228.971C616.211 229.683 613.206 232.771 612.004 237.047C609.2 247.498 607.597 258.899 606.796 270.775Z" fill="#CD2827"/>
<path d="M465.57 316.617L627.63 316.141C638.648 316.141 647.662 305.453 647.662 292.389V288.351C647.662 284.551 645.058 281.701 642.053 281.701L465.771 282.176L465.57 316.617Z" fill="#EE4D47"/>
<path d="M435.721 316.617H465.569V282.176H419.695L424.703 306.166C425.905 312.341 430.513 316.617 435.721 316.617Z" fill="#CD2827"/>
<path d="M364.407 190.968C371.218 191.205 384.439 192.868 384.439 198.568C384.439 204.269 372.82 206.169 363.405 206.169C353.99 206.169 352.989 199.993 352.187 197.381C351.586 194.768 350.985 190.73 364.407 190.968Z" fill="#CD2827"/>
<path d="M365.008 197.143C361.803 197.143 358.397 195.955 356.795 194.055C357.997 193.343 359.8 192.63 362.604 192.63C367.813 192.63 376.226 193.343 380.633 195.718C380.032 196.193 378.43 197.143 375.825 197.143C372.62 197.143 368.414 197.143 365.008 197.143Z" fill="#9B1616"/>
<path d="M378.429 201.656C379.631 201.656 380.232 201.893 380.432 202.131C376.826 204.031 370.216 204.744 367.01 204.744C362.403 204.744 359.198 204.744 358.196 203.556C358.998 202.844 360.801 201.656 362.603 201.656C365.007 201.893 376.826 201.656 378.429 201.656Z" fill="#9B1616"/>
<path d="M465.57 271.25C465.57 278.138 465.57 282.176 465.57 282.176L641.653 281.701C641.653 281.701 641.853 277.663 642.254 270.775L465.57 271.25Z" fill="#822626"/>
<g opacity="0.2">
<path d="M541.49 223.27V268.637L600.585 268.4V223.033C600.585 217.57 596.378 213.295 591.17 213.295H550.705C545.697 213.532 541.49 218.045 541.49 223.27Z" fill="#822626"/>
</g>
<path d="M620.418 266.974H632.838C636.043 266.974 638.847 263.887 638.847 259.849V252.486C638.847 248.685 636.243 245.36 632.838 245.36H620.418C617.213 245.36 614.408 248.448 614.408 252.486V259.849C614.408 263.887 617.213 266.974 620.418 266.974Z" fill="white"/>
<path d="M502.829 267.45H515.249C518.454 267.45 521.259 264.362 521.259 260.324V252.961C521.259 249.16 518.654 245.835 515.249 245.835H502.829C499.624 245.835 496.819 248.923 496.819 252.961V260.324C496.819 264.124 499.424 267.45 502.829 267.45Z" fill="white"/>
<path d="M422.701 141.325C422.701 142.275 423.301 142.988 423.902 143.226C431.715 144.176 439.928 144.176 448.342 142.988C449.343 142.75 449.944 142.038 449.944 140.85C450.545 121.849 450.545 103.322 449.944 85.7454C449.944 84.5578 449.143 83.8452 448.342 83.6077C439.728 82.4201 431.114 82.4201 422.1 83.6077C421.298 83.8452 420.697 84.7953 420.697 85.7454C420.096 103.559 420.898 122.086 422.701 141.325Z" fill="#CD2827"/>
<path d="M453.75 158.19C454.351 158.19 454.952 157.714 455.152 157.002C455.553 156.052 455.152 154.864 454.351 154.389L440.729 146.551C438.726 145.363 437.324 142.751 437.324 140.138L437.123 80.5198C437.123 80.2823 437.324 80.2823 437.324 80.2823H445.737C446.739 80.2823 447.34 79.3322 447.34 78.3821C447.34 77.1945 446.538 76.482 445.737 76.482H437.324C435.32 76.482 433.718 78.3821 433.718 80.7573L433.918 140.375C433.918 144.651 435.921 148.451 439.126 150.351L452.748 158.19C453.349 158.19 453.55 158.19 453.75 158.19Z" fill="#822626"/>
<path d="M545.621 319.43L602.312 319.284L602.275 299.095L545.584 299.241L545.621 319.43Z" fill="white"/>
<path opacity="0.8" d="M446.153 43.9472C458.573 77.6753 467.788 108.791 476.602 152.257L640.465 151.782C631.049 110.928 607.211 67.4618 597.395 51.5479C594.19 46.3224 591.386 41.8095 588.982 37.7717L449.158 38.2467C446.754 38.4843 445.151 41.3345 446.153 43.9472Z" fill="#8E6362"/>
<path d="M44.4932 319.467C44.4932 348.919 58.716 372.672 76.3443 372.434C93.9726 372.434 107.995 348.682 107.995 319.229C107.995 289.777 93.7722 266.024 76.1439 266.262C58.5157 266.262 44.4932 290.014 44.4932 319.467Z" fill="black"/>
<path d="M76.3443 354.382C87.9629 354.382 97.1777 338.706 97.1777 319.229C97.1777 299.99 87.7626 284.313 76.1439 284.313C64.5253 284.313 55.3105 299.99 55.3105 319.467C55.3105 338.944 64.7256 354.382 76.3443 354.382ZM76.1439 298.565C82.9549 298.565 88.5639 307.828 88.5639 319.229C88.5639 330.63 82.9549 340.131 76.1439 340.131C69.333 340.131 63.724 330.868 63.724 319.467C63.724 307.828 69.333 298.565 76.1439 298.565Z" fill="#625C5C"/>
<path d="M76.3448 384.31C97.7792 384.31 115.007 355.095 115.007 319.467C115.007 283.601 97.5789 254.623 76.1445 254.623C54.7101 254.623 37.4824 283.839 37.4824 319.467C37.4824 355.333 54.9104 384.31 76.3448 384.31ZM76.1445 266.262C93.7728 266.262 107.996 290.014 107.996 319.229C107.996 348.444 93.9731 372.434 76.3448 372.434C58.7165 372.434 44.4937 348.682 44.4937 319.467C44.4937 290.252 58.5162 266.262 76.1445 266.262Z" fill="#424242"/>
<path d="M70.9355 319.467C70.9355 314.479 73.3394 310.678 76.1439 310.678C79.1487 310.678 81.3522 314.716 81.5525 319.467C81.5525 324.455 79.1487 328.255 76.3442 328.255C73.3394 328.255 70.9355 324.217 70.9355 319.467Z" fill="#8B8282"/>
<defs>
<linearGradient id="paint0_linear_954_3988" x1="487.271" y1="-39.5761" x2="487.271" y2="289.33" gradientUnits="userSpaceOnUse">
<stop stop-color="#F4A984"/>
<stop offset="1" stop-color="#EE4D47"/>
</linearGradient>
<linearGradient id="paint1_linear_954_3988" x1="401.747" y1="-280.87" x2="401.747" y2="288.875" gradientUnits="userSpaceOnUse">
<stop stop-color="#F4A984"/>
<stop offset="0.560769" stop-color="#EE4D47"/>
</linearGradient>
</defs>
</svg>
