<svg width="322" height="172" viewBox="0 0 322 172" fill="none" xmlns="http://www.w3.org/2000/svg">
<path d="M63.418 142.572C63.418 158.603 72.8508 171.554 84.4521 171.554H105.486C117.087 171.554 126.412 158.496 126.412 142.572C126.412 126.542 116.979 113.591 105.378 113.591C105.161 113.591 105.052 113.591 104.836 113.591H84.4521C72.7424 113.591 63.418 126.648 63.418 142.572Z" fill="#402B2B"/>
<path d="M228.221 142.254C228.221 158.284 237.654 171.235 249.255 171.235H270.289C281.89 171.235 291.215 158.178 291.215 142.254C291.215 126.223 281.782 113.272 270.18 113.272C269.964 113.272 269.855 113.272 269.638 113.272H249.255C237.545 113.272 228.221 126.223 228.221 142.254Z" fill="#F48767"/>
<path d="M62.0088 139.812L146.687 139.6L136.929 133.974L72.8511 134.08L62.0088 139.812Z" fill="#402B2B"/>
<path d="M-17.8989 92.5715L-17.7905 145.758L50.9497 145.651L72.8512 134.08L136.929 133.974L156.662 145.439L296.528 145.121C298.805 145.121 300.648 143.316 300.648 141.087L300.54 91.9346L-17.8989 92.5715Z" fill="#F36F49"/>
<path d="M131.942 104.674L241.667 104.461L241.45 7.11272C241.45 3.18481 238.197 0 234.077 0L131.617 0.212332L131.942 104.674Z" fill="#F48767"/>
<path d="M-39.1494 105.099L131.834 104.78L131.617 0.318848L-32.1019 0.637314C-36.1135 0.637314 -39.3662 3.82209 -39.3662 7.85617L-39.1494 105.099Z" fill="#F06A5B"/>
<path d="M214.343 142.254C214.343 158.284 205.018 171.236 193.417 171.236H172.491V161.469C164.793 161.469 158.505 152.87 158.505 142.254C158.505 131.638 164.685 123.039 172.383 123.039V113.272H193.309C204.91 113.379 214.234 126.33 214.343 142.254Z" fill="#F48767"/>
<path d="M155.146 142.467C155.146 155.631 162.844 166.247 172.385 166.141C181.926 166.141 189.516 155.525 189.516 142.361C189.516 129.197 181.818 118.581 172.276 118.687C162.844 118.687 155.146 129.303 155.146 142.467Z" fill="#F48767"/>
<path d="M172.383 158.072C178.672 158.072 183.659 151.065 183.659 142.36C183.659 133.655 178.564 126.755 172.275 126.755C165.986 126.755 160.999 133.761 160.999 142.467C160.999 151.172 166.095 158.072 172.383 158.072ZM172.383 133.124C176.07 133.124 179.106 137.265 179.106 142.36C179.106 147.456 176.07 151.702 172.383 151.702C168.697 151.702 165.661 147.562 165.661 142.467C165.661 137.265 168.589 133.124 172.383 133.124Z" fill="#F7A58D"/>
<path d="M172.384 171.342C183.985 171.342 193.309 158.284 193.309 142.361C193.309 126.437 183.877 113.379 172.275 113.379C160.674 113.379 151.35 126.437 151.35 142.361C151.35 158.284 160.891 171.448 172.384 171.342ZM172.275 118.687C181.817 118.687 189.515 129.303 189.515 142.361C189.515 155.524 181.925 166.14 172.384 166.14C162.842 166.14 155.144 155.524 155.144 142.467C155.144 129.303 162.842 118.687 172.275 118.687Z" fill="#F7A58D"/>
<path d="M169.457 142.361C169.457 140.131 170.758 138.433 172.276 138.433C173.794 138.433 175.095 140.237 175.203 142.361C175.203 144.59 173.902 146.288 172.384 146.288C170.758 146.395 169.457 144.59 169.457 142.361Z" fill="#F48766"/>
<path d="M49.4316 142.679C49.4316 158.709 40.1072 171.66 28.506 171.66H7.58032V161.894C-0.117719 161.894 -6.40625 153.295 -6.40625 142.679C-6.40625 132.063 -0.226132 123.464 7.4719 123.464V113.697H28.3975C39.9988 113.697 49.4316 126.649 49.4316 142.679Z" fill="black"/>
<path d="M314.309 62.9528C314.309 63.3774 314.634 63.6959 314.959 63.8021C315.827 64.0144 319.079 64.0144 320.055 63.6959C320.489 63.5897 320.922 63.2713 320.922 62.7405C321.248 54.2477 321.248 45.9672 320.922 38.1114C320.922 37.5806 320.489 37.2621 320.055 37.156C318.971 36.8375 315.176 36.6252 313.983 37.0498C313.55 37.156 313.224 37.5806 313.224 38.0053C313.008 46.0734 313.333 54.3539 314.309 62.9528Z" fill="#F69276"/>
<path d="M308.997 70.4901C309.105 70.4901 309.214 70.4901 309.431 70.3839L316.803 66.7745C318.538 65.9252 319.622 64.2266 319.622 62.3158L319.514 35.6697C319.514 34.6081 318.647 33.7588 317.562 33.7588H297.287C296.745 33.7588 296.42 34.1834 296.42 34.6081C296.42 35.1389 296.854 35.4573 297.287 35.4573H317.562C317.671 35.4573 317.671 35.5635 317.671 35.5635L317.779 62.2096C317.779 63.4835 317.02 64.5451 315.936 65.0759L308.563 68.6854C308.13 68.8977 307.913 69.4285 308.13 69.8531C308.346 70.3839 308.672 70.4901 308.997 70.4901Z" fill="#F69276"/>
<path d="M146.688 104.461C146.688 104.461 149.507 104.461 153.844 104.461H171.083C183.985 104.461 187.021 110.724 194.936 126.117L219.982 126.011C219.982 126.011 219.982 124.207 219.982 121.128L315.611 120.916C316.045 113.166 316.912 97.4544 316.912 82.592C316.912 82.0612 316.912 81.6365 316.912 81.1057C316.912 76.8593 316.153 72.1883 314.852 67.5173C309.756 49.2578 296.854 29.8306 291.541 22.7179C289.806 20.3824 288.288 18.3654 286.987 16.5606C283.301 11.7835 280.807 9.3418 276.145 9.3418L160.241 9.66026C157.856 9.66026 155.687 11.2527 155.037 13.482C145.062 49.364 146.58 76.647 146.688 104.461ZM244.377 22.2933C244.269 21.7625 244.702 21.3378 245.245 21.3378L280.482 21.2317C282.542 21.2317 284.602 22.2933 285.903 24.098C299.673 42.4636 305.202 59.2368 307.263 68.8974L309.431 79.0887C309.756 80.5749 308.78 81.7427 307.263 81.7427H298.697C297.288 81.7427 295.77 81.1057 294.685 80.0441L277.121 63.5894C275.169 61.7847 272.567 60.7231 270.073 60.7231H249.039L244.377 22.2933Z" fill="#F36F49"/>
<path d="M226.16 67.8363C226.919 71.2334 227.787 74.7367 228.545 78.4523C229.088 81.0002 231.364 82.8049 233.967 82.9111C268.228 84.0788 296.635 84.185 316.91 82.6987C316.91 82.1679 316.91 81.7433 316.91 81.2125C316.91 76.9661 316.151 72.2951 314.85 67.624L226.16 67.8363Z" fill="#F6977C"/>
<path d="M162.842 21.4441L198.079 21.3379C200.139 21.3379 201.983 22.3995 202.958 24.2042C212.825 42.5699 214.885 59.3431 214.885 69.0036V79.195C214.885 80.6812 213.692 81.849 212.174 81.849H203.609C202.199 81.849 200.79 81.212 199.923 80.1504L185.828 63.6957C184.201 61.8909 181.924 60.7232 179.431 60.8294H158.396L161.758 22.3995C161.758 21.8687 162.191 21.4441 162.842 21.4441Z" fill="#F36F49"/>
<path d="M146.688 104.461C146.688 104.461 149.507 104.461 153.844 104.461H171.083C183.985 104.461 187.021 110.724 194.936 126.117L219.982 126.011C219.982 126.011 219.982 124.207 219.982 121.128L315.611 120.916C316.045 113.166 316.912 97.4544 316.912 82.592C296.637 84.0782 268.122 84.0782 233.969 82.8043C231.366 82.6981 229.089 80.8934 228.547 78.3456C227.788 74.63 226.921 71.0206 226.162 67.7296C221.5 48.3024 216.404 34.3955 209.682 19.3208C209.14 18.153 210.007 16.773 211.308 16.773L286.987 16.5606C283.301 11.7835 280.807 9.3418 276.145 9.3418L160.241 9.66026C157.856 9.66026 155.687 11.2527 155.037 13.482C145.062 49.364 146.58 76.647 146.688 104.461ZM158.289 60.8293L161.65 22.3994C161.65 21.8686 162.192 21.444 162.735 21.444L197.972 21.3378C200.032 21.3378 201.875 22.3994 202.851 24.2042C212.718 42.5698 214.778 59.343 214.778 69.0035V79.1949C214.778 80.6811 213.585 81.8489 212.067 81.8489H203.502C202.092 81.8489 200.683 81.2119 199.815 80.1503L185.72 63.6955C184.094 61.8908 181.817 60.7231 179.323 60.8293H158.289Z" fill="#F7A58D"/>
<path d="M150.916 101.701C150.916 103.294 152.217 104.461 153.843 104.461H171.082C183.985 104.461 187.021 110.725 194.936 126.118L219.981 126.012C219.981 126.012 219.981 124.207 219.981 121.128L219.873 78.1337C219.873 56.7956 215.97 43.3134 205.669 21.9753C204.151 18.7905 200.79 16.7734 197.212 16.7734L159.915 16.8796C159.047 16.8796 158.397 17.4104 158.18 18.1535C150.807 45.5427 150.807 90.1298 150.916 101.701ZM158.289 60.8297L161.65 22.3999C161.65 21.8691 162.192 21.4445 162.734 21.4445L197.971 21.3383C200.031 21.3383 201.875 22.3999 202.85 24.2046C212.717 42.5702 214.777 59.3435 214.777 69.004V79.1953C214.777 80.6816 213.584 81.8493 212.066 81.8493H203.501C202.091 81.8493 200.682 81.2124 199.815 80.1508L185.72 63.696C184.093 61.8913 181.816 60.7236 179.323 60.8297H158.289Z" fill="#F58A6B"/>
<path d="M163.059 22.718L198.079 22.6118C199.597 22.6118 201.007 23.4611 201.766 24.735C211.957 43.7376 213.584 60.617 213.584 68.8975V79.0888C213.584 79.8319 212.933 80.4689 212.174 80.4689H203.609C202.525 80.4689 201.549 80.0443 200.898 79.3012L186.803 62.8464C184.96 60.7232 182.25 59.4493 179.322 59.4493H159.806L163.059 22.718ZM162.842 21.4441C162.3 21.4441 161.758 21.8687 161.758 22.3995L158.396 60.8294H179.431C181.924 60.8294 184.201 61.8909 185.828 63.6957L199.923 80.1504C200.79 81.212 202.199 81.849 203.609 81.849H212.174C213.692 81.849 214.885 80.6812 214.885 79.195V69.0036C214.885 59.3431 212.825 42.5699 202.958 24.2042C201.983 22.3995 200.139 21.3379 198.079 21.3379L162.842 21.4441Z" fill="#F7A58D"/>
<path d="M219.874 100.852V121.128L257.714 121.022C257.28 115.714 256.304 110.618 254.678 105.841C254.027 103.93 252.401 102.55 250.341 102.232C241.992 101.276 231.367 100.852 219.874 100.852ZM296.421 121.022H315.178C315.503 116.563 315.828 109.344 316.154 101.17C311.6 101.382 307.371 101.807 303.577 102.338C301.517 102.656 299.89 104.036 299.24 105.947C297.722 110.618 296.854 115.714 296.421 121.022Z" fill="#F6977C"/>
<path d="M219.981 141.511L307.696 141.298C313.659 141.298 318.538 136.521 318.538 130.682V128.878C318.538 127.179 317.128 125.905 315.502 125.905L220.09 126.118L219.981 141.511Z" fill="#F6977C"/>
<path d="M203.826 141.511H219.981V126.118H195.152L197.863 136.84C198.513 139.6 201.007 141.511 203.826 141.511Z" fill="#F7A58D"/>
<path d="M165.227 85.3526C168.913 85.4588 176.069 86.2019 176.069 88.7497C176.069 91.2976 169.781 92.1469 164.685 92.1469C159.589 92.1469 159.047 89.3867 158.613 88.219C158.288 87.0512 157.963 85.2465 165.227 85.3526Z" fill="#F6977C"/>
<path d="M165.552 88.1127C163.817 88.1127 161.974 87.5819 161.106 86.7327C161.757 86.4142 162.733 86.0957 164.251 86.0957C167.07 86.0957 171.623 86.4142 174.009 87.4758C173.684 87.6881 172.816 88.1127 171.407 88.1127C169.672 88.1127 167.395 88.1127 165.552 88.1127Z" fill="#F47B58"/>
<path d="M172.817 90.1299C173.468 90.1299 173.793 90.2361 173.901 90.3422C171.95 91.1915 168.372 91.51 166.637 91.51C164.143 91.51 162.408 91.51 161.866 90.9792C162.3 90.6607 163.276 90.1299 164.252 90.1299C165.553 90.236 171.95 90.1299 172.817 90.1299Z" fill="#F47B58"/>
<path d="M219.981 121.234C219.981 124.313 219.981 126.118 219.981 126.118L315.285 125.905C315.285 125.905 315.394 124.101 315.611 121.022L219.981 121.234Z" fill="#F58A6B"/>
<g opacity="0.2">
<path d="M261.075 99.7902V120.067L293.06 119.961V99.6841C293.06 97.2424 290.783 95.3315 287.964 95.3315H266.063C263.352 95.4377 261.075 97.4547 261.075 99.7902Z" fill="#F16036"/>
</g>
<path d="M303.793 119.324H310.515C312.25 119.324 313.768 117.944 313.768 116.139V112.848C313.768 111.149 312.358 109.663 310.515 109.663H303.793C302.058 109.663 300.54 111.043 300.54 112.848V116.139C300.54 117.944 302.058 119.324 303.793 119.324Z" fill="white"/>
<path d="M240.146 119.536H246.868C248.603 119.536 250.121 118.156 250.121 116.351V113.06C250.121 111.362 248.712 109.875 246.868 109.875H240.146C238.411 109.875 236.894 111.256 236.894 113.06V116.351C236.894 118.05 238.303 119.536 240.146 119.536Z" fill="white"/>
<path d="M196.778 63.1656C196.778 63.5902 197.103 63.9087 197.428 64.0149C201.657 64.4395 206.102 64.4395 210.656 63.9087C211.198 63.8025 211.523 63.4841 211.523 62.9533C211.849 54.4605 211.849 46.18 211.523 38.3242C211.523 37.7934 211.09 37.475 210.656 37.3688C205.994 36.838 201.332 36.838 196.453 37.3688C196.019 37.475 195.694 37.8996 195.694 38.3242C195.368 46.2862 195.802 54.5666 196.778 63.1656Z" fill="#F7A58D"/>
<path d="M213.583 70.7026C213.908 70.7026 214.233 70.4903 214.341 70.1718C214.558 69.7471 214.341 69.2163 213.908 69.004L206.535 65.5008C205.451 64.97 204.692 63.8022 204.692 62.6344L204.583 35.9883C204.583 35.8821 204.692 35.8822 204.692 35.8822H209.246C209.788 35.8822 210.113 35.4575 210.113 35.0329C210.113 34.5021 209.679 34.1836 209.246 34.1836H204.692C203.608 34.1836 202.74 35.0329 202.74 36.0945L202.849 62.7406C202.849 64.6515 203.933 66.35 205.668 67.1993L213.04 70.7026C213.366 70.7026 213.474 70.7026 213.583 70.7026Z" fill="#F69276"/>
<path d="M263.31 142.768L293.993 142.703L293.973 133.679L263.29 133.744L263.31 142.768Z" fill="#F8B4A0"/>
<path opacity="0.6" d="M209.472 19.642C216.194 34.7167 221.181 48.6236 225.952 68.0508L314.642 67.8385C309.546 49.579 296.644 30.1518 291.331 23.0391C289.596 20.7036 288.078 18.6866 286.777 16.8818L211.098 17.0942C209.797 17.2003 208.93 18.4742 209.472 19.642Z" fill="url(#paint0_linear_954_4059)"/>
<path d="M-7.92236 142.785C-7.92236 155.949 -0.224318 166.565 9.31691 166.459C18.8581 166.459 26.4478 155.843 26.4478 142.679C26.4478 129.515 18.7497 118.899 9.20848 119.005C-0.332747 119.005 -7.92236 129.621 -7.92236 142.785Z" fill="black"/>
<path d="M9.31606 158.39C15.6046 158.39 20.592 151.384 20.592 142.679C20.592 134.08 15.4962 127.073 9.20763 127.073C2.91909 127.073 -2.06836 134.08 -2.06836 142.785C-2.06836 151.49 3.02752 158.39 9.31606 158.39ZM9.20763 133.443C12.894 133.443 15.9298 137.583 15.9298 142.679C15.9298 147.774 12.894 152.021 9.20763 152.021C5.52124 152.021 2.4854 147.881 2.4854 142.785C2.4854 137.583 5.52124 133.443 9.20763 133.443Z" fill="#625C5C"/>
<path d="M9.31583 171.766C20.9171 171.766 30.2415 158.709 30.2415 142.785C30.2415 126.755 20.8087 113.803 9.2074 113.803C-2.39387 113.803 -11.7183 126.861 -11.7183 142.785C-11.7183 158.815 -2.28544 171.766 9.31583 171.766ZM9.2074 119.005C18.7486 119.005 26.4467 129.621 26.4467 142.679C26.4467 155.736 18.8571 166.458 9.31583 166.458C-0.225403 166.458 -7.92345 155.842 -7.92345 142.785C-7.92345 129.727 -0.333833 119.005 9.2074 119.005Z" fill="#424242"/>
<path d="M6.38818 142.785C6.38818 140.556 7.68925 138.857 9.20717 138.857C10.8335 138.857 12.0262 140.662 12.1346 142.785C12.1346 145.014 10.8335 146.713 9.3156 146.713C7.68925 146.713 6.38818 144.908 6.38818 142.785Z" fill="#8B8282"/>
<defs>
<linearGradient id="paint0_linear_954_4059" x1="250.845" y1="0.64187" x2="291.754" y2="100.804" gradientUnits="userSpaceOnUse">
<stop stop-color="#F7A58D"/>
<stop offset="0.926161" stop-color="white"/>
</linearGradient>
</defs>
</svg>
