<svg width="596" height="409" viewBox="0 0 596 409" fill="none" xmlns="http://www.w3.org/2000/svg">
<path d="M546.632 313.845C601.615 255.156 621.61 136.557 546.632 120.254C435.451 96.0793 490.398 181.388 217.562 136.556C48.5252 108.781 61.3587 273.089 155.081 364.79C248.803 456.491 477.902 387.206 546.632 313.845Z" fill="#FCDDD4"/>
<mask id="mask0_954_4090" style="mask-type:alpha" maskUnits="userSpaceOnUse" x="86" y="115" width="510" height="294">
<path d="M546.631 313.844C601.615 255.156 621.609 136.557 546.631 120.253C435.45 96.0788 490.397 181.387 217.561 136.556C48.5242 108.78 61.3577 273.088 155.08 364.789C248.802 456.491 477.901 387.205 546.631 313.844Z" fill="#FCDDD4"/>
</mask>
<g mask="url(#mask0_954_4090)">
<path opacity="0.7" d="M50.9453 286.863C78.2129 252.171 150.435 184.521 221.184 191.459C309.619 200.132 141.592 362.753 221.184 362.753C300.775 362.753 338.361 163.272 395.844 163.272C453.327 163.272 331.728 310.714 395.844 319.387C459.959 328.06 513.021 111.233 583.769 109.065C654.517 106.897 510.81 286.863 625.776 286.863" stroke="url(#paint0_linear_954_4090)" stroke-width="1.6437"/>
<path d="M658.627 367.274C658.627 389.9 645.317 408.181 628.948 408.181H599.269C582.9 408.181 569.743 389.751 569.743 367.274C569.743 344.648 583.053 326.367 599.422 326.367C599.728 326.367 599.881 326.367 600.187 326.367H628.948C645.47 326.367 658.627 344.798 658.627 367.274Z" fill="#402B2B"/>
<path d="M426.093 366.825C426.093 389.451 412.783 407.732 396.414 407.732H366.735C350.365 407.732 337.209 389.301 337.209 366.825C337.209 344.198 350.518 325.917 366.888 325.917C367.194 325.917 367.347 325.917 367.653 325.917H396.414C412.936 325.917 426.093 344.198 426.093 366.825Z" fill="#F48767"/>
<path d="M660.613 363.379L541.132 363.079L554.901 355.137L645.315 355.287L660.613 363.379Z" fill="#402B2B"/>
<path d="M773.364 296.699L773.211 371.77L676.219 371.62L645.316 355.287L554.902 355.138L527.059 371.321L329.709 370.871C326.496 370.871 323.895 368.324 323.895 365.177L324.048 295.8L773.364 296.699Z" fill="#F36F49"/>
<path d="M561.939 313.781L407.118 313.481L407.424 176.075C407.424 170.531 412.014 166.036 417.827 166.036L562.397 166.335L561.939 313.781Z" fill="#F48767"/>
<path d="M803.349 314.38L562.093 313.931L562.399 166.486L793.405 166.935C799.066 166.935 803.655 171.43 803.655 177.124L803.349 314.38Z" fill="#F06A5B"/>
<path d="M445.672 366.825C445.672 389.451 458.829 407.732 475.198 407.732H504.724V393.946C515.586 393.946 524.459 381.809 524.459 366.825C524.459 351.84 515.739 339.703 504.877 339.703V325.917H475.351C458.982 326.067 445.825 344.348 445.672 366.825Z" fill="#F48767"/>
<path d="M529.2 367.125C529.2 385.705 518.338 400.689 504.876 400.54C491.413 400.54 480.704 385.555 480.704 366.975C480.704 348.394 491.566 333.41 505.029 333.56C518.338 333.56 529.2 348.544 529.2 367.125Z" fill="#F48767"/>
<path d="M504.878 389.151C496.005 389.151 488.968 379.261 488.968 366.974C488.968 354.687 496.158 344.947 505.031 344.947C513.904 344.947 520.941 354.837 520.941 367.124C520.941 379.411 513.751 389.151 504.878 389.151ZM504.878 353.938C499.677 353.938 495.393 359.782 495.393 366.974C495.393 374.167 499.677 380.16 504.878 380.16C510.079 380.16 514.363 374.316 514.363 367.124C514.363 359.782 510.232 353.938 504.878 353.938Z" fill="#F7A58D"/>
<path d="M504.878 407.881C488.508 407.881 475.352 389.451 475.352 366.974C475.352 344.498 488.661 326.067 505.031 326.067C521.4 326.067 534.557 344.498 534.557 366.974C534.557 389.451 521.094 408.031 504.878 407.881ZM505.031 333.56C491.568 333.56 480.706 348.544 480.706 366.974C480.706 385.555 491.415 400.539 504.878 400.539C518.34 400.539 529.202 385.555 529.202 367.124C529.202 348.544 518.34 333.56 505.031 333.56Z" fill="#F7A58D"/>
<path d="M509.008 366.975C509.008 363.828 507.172 361.43 505.03 361.43C502.888 361.43 501.053 363.978 500.9 366.975C500.9 370.121 502.735 372.519 504.877 372.519C507.172 372.669 509.008 370.121 509.008 366.975Z" fill="#5B2929"/>
<path d="M304.621 254.893C304.621 255.493 304.162 255.942 303.703 256.092C302.479 256.392 297.889 256.392 296.513 255.942C295.901 255.792 295.289 255.343 295.289 254.594C294.83 242.606 294.83 230.919 295.289 219.83C295.289 219.081 295.901 218.631 296.513 218.482C298.042 218.032 303.397 217.732 305.08 218.332C305.692 218.482 306.151 219.081 306.151 219.68C306.457 231.068 305.998 242.756 304.621 254.893Z" fill="#F69276"/>
<path d="M312.115 265.531C311.962 265.531 311.809 265.531 311.503 265.382L301.1 260.287C298.653 259.088 297.123 256.691 297.123 253.993L297.276 216.383C297.276 214.885 298.5 213.686 300.029 213.686H328.637C329.402 213.686 329.861 214.285 329.861 214.885C329.861 215.634 329.249 216.083 328.637 216.083H300.029C299.876 216.083 299.876 216.233 299.876 216.233L299.723 253.844C299.723 255.642 300.794 257.14 302.324 257.889L312.727 262.984C313.339 263.284 313.645 264.033 313.339 264.632C313.033 265.382 312.574 265.531 312.115 265.531Z" fill="#F69276"/>
<path d="M541.134 313.48C541.134 313.48 537.156 313.48 531.037 313.48H506.712C488.507 313.48 484.223 322.321 473.056 344.048L437.716 343.898C437.716 343.898 437.716 341.351 437.716 337.006L302.784 336.706C302.172 325.768 300.948 303.591 300.948 282.613C300.948 281.864 300.948 281.264 300.948 280.515C300.948 274.521 302.019 267.928 303.855 261.335C311.045 235.562 329.25 208.141 336.746 198.102C339.194 194.805 341.336 191.958 343.172 189.411C348.373 182.668 351.892 179.221 358.47 179.221L522.011 179.671C525.376 179.671 528.436 181.919 529.354 185.065C543.428 235.712 541.287 274.222 541.134 313.48ZM403.295 197.502C403.448 196.753 402.836 196.154 402.071 196.154L352.351 196.004C349.444 196.004 346.537 197.502 344.701 200.05C325.272 225.972 317.47 249.647 314.563 263.283L311.504 277.668C311.045 279.766 312.422 281.414 314.563 281.414H326.649C328.638 281.414 330.78 280.515 332.31 279.017L357.093 255.791C359.847 253.244 363.519 251.745 367.037 251.745H396.716L403.295 197.502Z" fill="#F36F49"/>
<path d="M428.998 261.785C427.927 266.58 426.703 271.525 425.632 276.77C424.867 280.366 421.655 282.913 417.983 283.063C369.64 284.712 329.558 284.861 300.95 282.764C300.95 282.014 300.95 281.415 300.95 280.666C300.95 274.672 302.021 268.079 303.857 261.486L428.998 261.785Z" fill="#F6977C"/>
<path d="M518.341 196.304L468.621 196.154C465.714 196.154 463.113 197.652 461.737 200.2C447.815 226.123 444.908 249.798 444.908 263.433V277.818C444.908 279.916 446.591 281.564 448.733 281.564H460.819C462.807 281.564 464.796 280.665 466.02 279.167L485.908 255.941C488.203 253.394 491.416 251.746 494.934 251.896H524.613L519.871 197.652C519.871 196.903 519.259 196.304 518.341 196.304Z" fill="#F36F49"/>
<path d="M541.134 313.48C541.134 313.48 537.156 313.48 531.037 313.48H506.712C488.507 313.48 484.223 322.321 473.056 344.048L437.716 343.898C437.716 343.898 437.716 341.351 437.716 337.006L302.784 336.706C302.172 325.768 300.948 303.591 300.948 282.613C329.556 284.711 369.791 284.711 417.981 282.913C421.653 282.763 424.865 280.215 425.63 276.619C426.701 271.375 427.925 266.28 428.996 261.635C435.574 234.214 442.765 214.584 452.25 193.307C453.015 191.658 451.791 189.71 449.955 189.71L343.172 189.411C348.373 182.668 351.892 179.221 358.47 179.221L522.011 179.671C525.376 179.671 528.436 181.919 529.354 185.065C543.428 235.712 541.287 274.222 541.134 313.48ZM524.764 251.895L520.022 197.652C520.022 196.903 519.257 196.303 518.492 196.303L468.772 196.154C465.865 196.154 463.265 197.652 461.888 200.199C447.966 226.122 445.059 249.797 445.059 263.433V277.818C445.059 279.916 446.742 281.564 448.884 281.564H460.97C462.959 281.564 464.947 280.665 466.171 279.166L486.059 255.941C488.354 253.394 491.567 251.745 495.085 251.895H524.764Z" fill="#F7A58D"/>
<path d="M535.168 309.585C535.168 311.833 533.332 313.481 531.037 313.481H506.713C488.508 313.481 484.224 322.322 473.056 344.049L437.717 343.899C437.717 343.899 437.717 341.352 437.717 337.006L437.87 276.32C437.87 246.202 443.377 227.172 457.911 197.053C460.052 192.558 464.795 189.711 469.843 189.711L522.47 189.861C523.694 189.861 524.612 190.61 524.918 191.659C535.321 230.318 535.321 293.252 535.168 309.585ZM524.765 251.896L520.022 197.653C520.022 196.903 519.258 196.304 518.493 196.304L468.773 196.154C465.866 196.154 463.265 197.653 461.888 200.2C447.967 226.123 445.06 249.798 445.06 263.433V277.818C445.06 279.916 446.743 281.564 448.885 281.564H460.97C462.959 281.564 464.948 280.665 466.172 279.167L486.06 255.941C488.355 253.394 491.567 251.746 495.086 251.896H524.765Z" fill="#F58A6B"/>
<path d="M518.035 198.102L468.621 197.952C466.479 197.952 464.49 199.151 463.419 200.949C449.039 227.771 446.744 251.596 446.744 263.284V277.669C446.744 278.717 447.662 279.617 448.733 279.617H460.819C462.349 279.617 463.725 279.017 464.643 277.968L484.531 254.743C487.132 251.746 490.957 249.948 495.087 249.948H522.624L518.035 198.102ZM518.341 196.304C519.106 196.304 519.871 196.903 519.871 197.652L524.613 251.896H494.934C491.416 251.896 488.203 253.394 485.908 255.941L466.02 279.167C464.796 280.665 462.807 281.564 460.819 281.564H448.733C446.591 281.564 444.908 279.916 444.908 277.818V263.433C444.908 249.798 447.815 226.123 461.737 200.2C463.113 197.652 465.714 196.154 468.621 196.154L518.341 196.304Z" fill="#F7A58D"/>
<path d="M437.868 308.386V337.006L384.477 336.856C385.088 329.364 386.465 322.172 388.76 315.429C389.678 312.731 391.973 310.784 394.879 310.334C406.659 308.985 421.652 308.386 437.868 308.386ZM329.861 336.856H303.395C302.936 330.563 302.477 320.373 302.018 308.836C308.443 309.135 314.41 309.735 319.764 310.484C322.671 310.933 324.965 312.881 325.883 315.578C328.025 322.172 329.249 329.364 329.861 336.856Z" fill="#F6977C"/>
<path d="M437.717 365.776L313.952 365.477C305.538 365.477 298.654 358.734 298.654 350.492V347.945C298.654 345.547 300.643 343.749 302.937 343.749L437.564 344.049L437.717 365.776Z" fill="#F6977C"/>
<path d="M460.511 365.776H437.716V344.049H472.75L468.925 359.183C468.007 363.079 464.489 365.776 460.511 365.776Z" fill="#F7A58D"/>
<path d="M514.975 286.51C509.773 286.66 499.676 287.709 499.676 291.305C499.676 294.901 508.55 296.1 515.74 296.1C522.93 296.1 523.695 292.204 524.307 290.556C524.766 288.907 525.225 286.36 514.975 286.51Z" fill="#F6977C"/>
<path d="M514.516 290.405C516.963 290.405 519.564 289.656 520.788 288.457C519.87 288.008 518.493 287.558 516.352 287.558C512.374 287.558 505.949 288.008 502.583 289.506C503.042 289.806 504.266 290.405 506.255 290.405C508.702 290.405 511.915 290.405 514.516 290.405Z" fill="#F47B58"/>
<path d="M504.265 293.253C503.347 293.253 502.888 293.403 502.735 293.552C505.489 294.751 510.538 295.201 512.985 295.201C516.504 295.201 518.952 295.201 519.717 294.451C519.105 294.002 517.728 293.253 516.351 293.253C514.515 293.403 505.489 293.253 504.265 293.253Z" fill="#F47B58"/>
<path d="M437.717 337.156C437.717 341.501 437.717 344.049 437.717 344.049L303.243 343.749C303.243 343.749 303.09 341.202 302.784 336.856L437.717 337.156Z" fill="#F58A6B"/>
<g opacity="0.2">
<path d="M379.735 306.887V335.507L334.605 335.358V306.738C334.605 303.291 337.818 300.594 341.795 300.594H372.698C376.523 300.744 379.735 303.591 379.735 306.887Z" fill="#F16036"/>
</g>
<path d="M319.459 334.459H309.974C307.527 334.459 305.385 332.511 305.385 329.963V325.318C305.385 322.921 307.374 320.823 309.974 320.823H319.459C321.907 320.823 324.049 322.771 324.049 325.318V329.963C324.049 332.511 321.907 334.459 319.459 334.459Z" fill="white"/>
<path d="M409.264 334.759H399.779C397.331 334.759 395.189 332.811 395.189 330.263V325.618C395.189 323.221 397.178 321.123 399.779 321.123H409.264C411.712 321.123 413.854 323.071 413.854 325.618V330.263C413.854 332.661 411.865 334.759 409.264 334.759Z" fill="white"/>
<path d="M470.456 255.193C470.456 255.792 469.997 256.242 469.538 256.391C463.572 256.991 457.3 256.991 450.874 256.242C450.109 256.092 449.65 255.642 449.65 254.893C449.191 242.906 449.191 231.218 449.65 220.129C449.65 219.38 450.262 218.931 450.874 218.781C457.452 218.032 464.031 218.032 470.915 218.781C471.527 218.931 471.986 219.53 471.986 220.129C472.445 231.368 471.833 243.055 470.456 255.193Z" fill="#F7A58D"/>
<path d="M446.744 265.831C446.286 265.831 445.827 265.532 445.674 265.082C445.368 264.483 445.674 263.734 446.286 263.434L456.689 258.489C458.218 257.74 459.289 256.092 459.289 254.443L459.442 216.833C459.442 216.683 459.289 216.683 459.289 216.683H452.864C452.099 216.683 451.64 216.083 451.64 215.484C451.64 214.735 452.252 214.285 452.864 214.285H459.289C460.819 214.285 462.043 215.484 462.043 216.983L461.89 254.593C461.89 257.29 460.36 259.688 457.912 260.887L447.509 265.831C447.05 265.831 446.897 265.831 446.744 265.831Z" fill="#F69276"/>
<path d="M376.58 367.55L333.285 367.458L333.313 354.721L376.608 354.814L376.58 367.55Z" fill="#F8B4A0"/>
<path opacity="0.6" d="M452.545 193.76C443.06 215.038 436.022 234.667 429.291 262.088L304.15 261.789C311.34 236.016 329.545 208.595 337.041 198.555C339.489 195.259 341.631 192.412 343.467 189.864L450.25 190.164C452.086 190.314 453.31 192.112 452.545 193.76Z" fill="url(#paint1_linear_954_4090)"/>
<path d="M249.843 208.389C249.843 208.389 246.31 315.935 249.746 436.838C249.746 436.838 260.054 446.396 279.585 440.024C279.585 440.024 279.404 305.491 284.648 252.032C284.648 252.032 309.242 353.639 340.347 441.617C340.347 441.617 361.143 445.511 368.558 434.005C368.558 434.005 326.603 291.506 320.454 209.548L249.843 208.389Z" fill="url(#paint2_linear_954_4090)"/>
<path d="M250.107 209.547H320.453C320.996 215.743 321.538 222.293 322.442 229.019C280.488 229.196 258.244 218.752 249.926 213.973C249.926 210.964 250.107 209.547 250.107 209.547Z" fill="#402B2B" fill-opacity="0.45" style="mix-blend-mode:multiply"/>
</g>
<path d="M257.164 31.2897H274.525L276.876 21.0227C276.876 21.0227 270.004 24.9171 268.377 22.2618C266.749 19.6066 267.111 20.6687 265.483 21.0227C263.856 21.3767 263.856 19.2526 261.866 20.4917C259.696 21.9078 256.441 28.6344 257.164 31.2897Z" fill="#6B1912"/>
<path d="M223.239 159.48L233.132 136.045L260.95 146.247C259.991 153.754 243.025 168.141 233.132 178.33L223.239 159.48Z" fill="url(#paint3_linear_954_4090)"/>
<path d="M246.409 91.1844C246.409 91.1844 231.177 118.216 222.249 157.953C219.501 170.18 220.166 176.497 224.331 179.35C229.538 182.916 238.909 179.86 243.595 170.18C248.367 159.483 257.187 136.279 259.166 125.126C259.166 125.126 255.743 93.189 246.409 91.1844Z" fill="url(#paint4_linear_954_4090)"/>
<path d="M246.316 90.7666C246.316 90.7666 247.22 111.124 249.932 209.014C249.932 209.014 274.527 221.228 323.534 212.731C323.534 212.731 323.715 183.347 330.406 157.325C330.406 157.325 342.884 108.291 336.554 93.9529C336.554 93.9529 296.589 69.7015 246.316 90.7666Z" fill="url(#paint5_linear_954_4090)"/>
<path d="M284.29 71.3654L283.929 84.0402C283.929 84.0402 287.003 88.4656 294.417 88.9966C301.832 89.3506 305.449 85.2792 305.449 85.2792L306.172 66.4089C296.949 70.3033 287.907 71.8964 284.29 71.3654Z" fill="url(#paint6_linear_954_4090)"/>
<path d="M285.014 66.1616L284.291 80.146C287.908 80.677 296.95 79.0839 305.992 75.1895L306.534 66.1616H285.014V66.1616Z" fill="url(#paint7_linear_954_4090)" style="mix-blend-mode:multiply"/>
<path d="M334.022 121.567C334.022 121.567 323.352 145.11 319.554 155.732C315.757 166.176 315.757 207.775 295.864 215.74C295.864 215.74 317.023 214.501 323.714 212.731C323.714 212.731 324.075 181.399 330.586 157.325C330.586 157.325 335.107 132.011 336.915 120.505L334.022 121.567Z" fill="#EE4D47" fill-opacity="0.29" style="mix-blend-mode:multiply"/>
<path d="M319.917 35.3614C319.555 35.5384 319.194 41.203 319.194 41.203L317.747 53.0631L311.056 58.1966L307.258 59.7897C307.258 59.7897 301.652 57.4885 302.376 55.3643C303.099 53.4171 306.716 25.4485 307.439 25.4485C308.162 25.4485 313.949 29.5198 313.949 29.5198L319.917 35.3614Z" fill="#402B2B"/>
<path d="M266.932 24.74C265.304 24.74 267.836 44.2119 267.836 44.2119L270.73 36.4231L272.719 27.0412L266.932 24.74Z" fill="#402B2B"/>
<path d="M269.644 28.6331L266.57 53.5925C266.57 53.5925 265.485 74.6575 283.207 75.8966C300.929 76.9587 313.045 59.7881 313.045 59.7881C313.045 59.7881 315.215 62.2663 317.566 58.0179C319.736 53.7695 318.29 48.105 315.215 47.5739C311.96 47.2199 310.513 48.99 310.152 51.6453C309.79 54.3005 309.428 56.2477 309.428 56.2477L306.716 55.8937L308.705 35.3598C308.705 35.3598 304.546 27.394 299.844 25.8009C295.142 24.2077 290.983 30.5803 290.983 30.5803C290.983 30.5803 286.643 31.4654 282.483 30.5803C278.324 29.6952 275.612 28.6331 275.612 28.6331C275.612 28.6331 273.08 29.3412 269.644 28.6331Z" fill="url(#paint8_linear_954_4090)"/>
<path d="M283.166 173.236C283.166 173.236 255.57 169.16 255.57 165.084C255.57 161.009 261.298 151.329 265.463 140.121C269.629 128.913 273.273 111.083 274.836 107.516C276.398 103.95 270.149 114.139 270.149 114.139C259.909 127.215 239.013 154.284 237.347 157.952C235.68 161.62 234.917 170.349 234.743 174.255L242.033 178.33L263.381 175.783L283.166 173.236Z" fill="#EE4D47" fill-opacity="0.29" style="mix-blend-mode:multiply"/>
<path d="M274.266 65.2323C274.266 63.1943 276.389 60.1486 279.993 61.1566C283.638 62.1758 284.506 65.2321 284.679 67.2699" stroke="#893D43" stroke-width="0.821849"/>
<path d="M269.059 94.7805C269.059 94.7805 223.761 151.855 222.719 161.009C221.678 170.164 220.92 179.193 230.387 180.308C239.854 181.422 248.848 166.837 252.161 159.405L259.687 140.631L275.307 103.441L269.059 94.7805Z" fill="url(#paint9_linear_954_4090)"/>
<path d="M275.357 107.007C275.357 101.912 269.108 99.8745 263.902 99.8745L231.62 143.687C225.025 152.688 213.708 173.439 225.372 180.368C237.035 187.296 250.017 169.669 254.53 160.499C257.029 154.793 269.456 122.46 275.357 107.007Z" fill="url(#paint10_linear_954_4090)"/>
<path d="M269.109 95.7991C269.109 95.7991 265.927 83.6997 269.307 75.827C269.307 75.827 271.152 72.3062 273.141 73.8195C275.356 75.2147 277.096 72.0326 279.311 73.4278C281.526 74.823 283.298 72.7596 285.492 75.4428C285.492 75.4428 287.989 74.7032 289.423 76.7913C290.856 78.8795 294.138 83.5483 293.425 84.6313C292.712 85.7142 290.291 91.0979 289.666 91.2828C289.042 91.4677 287.898 91.4988 287.383 89.4976C287.383 89.4976 287.327 91.5144 286.247 93.7828C285.341 96.1025 282.388 98.9257 282.388 98.9257L274.836 103.95L269.109 95.7991Z" fill="url(#paint11_linear_954_4090)"/>
<path d="M288.269 22.2613V4.20557C299.3 4.73662 310.693 6.8608 316.299 13.5874C322.99 21.5532 319.192 39.963 319.192 39.963C319.192 39.963 311.054 39.078 309.608 36.4227C308.161 33.7674 294.417 30.05 283.929 30.5811C273.44 31.1122 268.376 30.0501 263.132 25.6246C262.047 24.7396 261.143 23.5004 260.419 22.0843H288.269V22.2613Z" fill="#402B2B"/>
<path d="M320.457 33.2366C320.457 33.2366 312.681 30.7583 299.66 29.6962C277.779 20.6683 268.375 22.2615 268.375 22.2615C268.375 22.2615 268.556 15.3579 270.545 10.5784C272.534 5.79893 285.916 -0.927716 297.128 0.134387C308.341 1.19649 319.914 9.33923 321.723 17.128C323.169 23.1466 320.457 33.2366 320.457 33.2366Z" fill="url(#paint12_linear_954_4090)"/>
<path d="M307.256 30.5837C304.905 19.6086 288.087 14.1211 276.151 14.2981C264.397 14.4751 256.078 24.034 254.812 30.5837C254.27 33.2389 256.44 33.5929 257.163 31.2917C257.706 29.6986 258.791 22.0868 269.641 22.9719C280.492 23.857 279.949 33.4159 285.374 34.301C290.438 35.1861 296.225 31.6458 307.256 30.5837Z" fill="url(#paint13_linear_954_4090)"/>
<path d="M270.202 37.0877L269.638 35.978C270.124 35.7419 273.608 33.4554 278.625 32.2021L279.349 34.0247C275.06 34.7258 270.202 37.0877 270.202 37.0877Z" fill="#402B2B"/>
<path d="M300.987 41.7452C298.82 38.782 293.65 35.4067 293.728 35.2467L295.156 33.9499C295.319 34.0256 299.921 37.3336 302.183 40.9283L300.987 41.7452Z" fill="#402B2B"/>
<path d="M283.388 43.5039C283.388 43.5039 282.845 47.2212 281.398 48.2833C279.952 49.3454 277.42 50.2305 277.058 51.1156C276.697 51.8237 277.42 53.2398 279.048 53.7709C280.675 54.3019 280.856 54.833 280.856 54.833C280.856 54.833 277.601 55.1871 275.973 53.2399C274.346 51.2927 276.154 49.6995 277.782 48.8144C279.409 47.9293 280.133 47.5753 280.856 47.0443C281.76 46.5132 283.388 43.5039 283.388 43.5039Z" fill="#D87C60"/>
<path d="M291.162 45.449C291.162 47.2192 292.428 48.8124 294.056 48.8124C295.683 48.8124 296.949 47.3962 296.949 45.449C296.949 43.6788 295.683 42.0857 294.056 42.0857C292.428 42.0857 291.162 43.5018 291.162 45.449Z" fill="#402B2B"/>
<path d="M271.271 43.1485C271.271 44.9186 272.537 46.5118 274.164 46.5118C275.792 46.5118 277.058 45.0957 277.058 43.1485C277.058 41.3783 275.792 39.7852 274.164 39.7852C272.537 39.9622 271.271 41.3783 271.271 43.1485Z" fill="#402B2B"/>
<path d="M261.46 181.388C260.071 179.18 257.502 173.033 258.336 166.104C260.071 168.482 263.126 174.867 261.46 181.388Z" fill="#644545"/>
<path fill-rule="evenodd" clip-rule="evenodd" d="M324.436 173.08C337.637 154.316 339.445 97.4937 339.445 97.4937C327.298 99.0394 321.497 110.804 317.77 118.362C315.949 122.056 314.623 124.745 313.294 124.745L307.699 159.542L251.756 169.316C251.709 169.38 251.663 169.442 251.617 169.505C248.861 169.576 239.299 170.104 233.053 173.995C233.053 173.995 229.817 176.368 231.677 178.031C232.567 178.982 232.283 180.011 232 181.039C231.717 182.068 231.433 183.097 232.323 184.048C233.073 184.849 233.19 185.679 233.306 186.495C233.464 187.614 233.618 188.707 235.395 189.67C235.395 189.67 235.071 192.202 237.416 193.233C237.522 193.28 237.635 193.329 237.753 193.381C240.229 194.472 245.062 196.601 245.989 195.771C246.337 195.459 247.206 194.841 248.181 194.148C249.923 192.91 252.004 191.431 252.056 191.025C252.137 190.392 251.975 189.283 249.873 189.124C249.873 189.124 251.895 188.729 253.998 187.306C256.182 186.04 258.528 182.717 258.528 182.717L260.656 177.961C312.488 182.283 324.436 173.08 324.436 173.08Z" fill="url(#paint14_linear_954_4090)"/>
<path d="M309.246 123.516L304.183 149.537L301.911 156.087L258.174 166.104C259.389 168.312 261.714 174.459 261.298 181.388C271.017 182.407 298.058 182.509 315.969 178.84C320.781 177.936 326.383 173.237 333.479 156.087C349.574 101.92 336.553 93.9541 336.553 93.9541C318.469 96.2553 309.246 123.516 309.246 123.516Z" fill="url(#paint15_linear_954_4090)"/>
<path d="M194.133 146.745C194.133 146.745 214.881 167.632 197.778 172.217C180.675 176.803 164.493 163.313 142.624 166.969C105.136 173.236 43.5772 181.387 10.2537 120.253C-31.4006 43.8353 77.305 13.2683 132.093 13.2686C197.817 13.2689 223.732 40.7789 229.981 78.4784C234.979 108.638 207.671 137.575 194.133 146.745Z" fill="url(#paint16_linear_954_4090)"/>
<path d="M115.123 104.591L116.126 83.5697C120.141 82.5506 123.493 80.6805 126.182 77.9594C128.872 75.2383 130.428 71.7864 130.851 67.6036C131.349 62.6827 130.832 58.7401 129.3 55.776C127.777 52.7299 125.655 51.0751 122.935 50.8117C120.545 50.5802 118.607 51.2208 117.122 52.7334C115.72 54.254 114.507 56.3726 113.483 59.0893L111.278 64.8388C110.254 67.5555 108.773 69.4411 106.835 70.4958C104.988 71.4764 103.088 71.7478 101.134 71.3102C99.263 70.8806 97.7015 69.8598 96.4494 68.2478C95.2057 66.5539 94.7166 64.3946 94.982 61.7701C95.3138 58.4895 96.7953 55.7757 99.4264 53.6287C102.14 51.4897 105.459 49.9477 109.384 49.0026C113.308 48.0575 117.331 47.7845 121.453 48.1836C129.779 48.9898 136.112 51.3837 140.454 55.3653C144.879 59.3549 146.734 64.8764 146.021 71.9297C145.531 76.7686 143.921 80.7537 141.191 83.8848C138.46 87.016 135.091 89.4642 131.083 91.2294C127.166 92.9206 123.13 94.1448 118.975 94.9019L117.349 104.807L115.123 104.591ZM112.261 134.129C109.293 133.842 106.841 132.569 104.905 130.311C103.052 128.061 102.275 125.46 102.573 122.507C102.864 119.637 104.143 117.276 106.411 115.425C108.77 113.5 111.433 112.682 114.401 112.969C117.451 113.264 119.857 114.574 121.62 116.898C123.473 119.148 124.255 121.708 123.964 124.579C123.666 127.531 122.382 129.933 120.114 131.784C117.928 133.643 115.311 134.424 112.261 134.129Z" fill="white"/>
<defs>
<linearGradient id="paint0_linear_954_4090" x1="338.361" y1="169.107" x2="338.361" y2="418.672" gradientUnits="userSpaceOnUse">
<stop stop-color="#F37753"/>
<stop offset="1" stop-color="white" stop-opacity="0"/>
</linearGradient>
<linearGradient id="paint1_linear_954_4090" x1="394.167" y1="166.942" x2="336.41" y2="308.305" gradientUnits="userSpaceOnUse">
<stop stop-color="#F7A58D"/>
<stop offset="0.926161" stop-color="white"/>
</linearGradient>
<linearGradient id="paint2_linear_954_4090" x1="308.433" y1="143.73" x2="308.433" y2="442.251" gradientUnits="userSpaceOnUse">
<stop stop-color="#822626"/>
<stop offset="0.943497" stop-color="#402B2B"/>
</linearGradient>
<linearGradient id="paint3_linear_954_4090" x1="238.668" y1="139.21" x2="238.668" y2="185.758" gradientUnits="userSpaceOnUse">
<stop stop-color="#FFB3B6"/>
<stop offset="1" stop-color="#FFC8C1"/>
</linearGradient>
<linearGradient id="paint4_linear_954_4090" x1="259.216" y1="95.2908" x2="259.216" y2="186.992" gradientUnits="userSpaceOnUse">
<stop stop-color="#F4A984"/>
<stop offset="1" stop-color="#EE4D47"/>
</linearGradient>
<linearGradient id="paint5_linear_954_4090" x1="292.331" y1="31.3002" x2="292.331" y2="211.151" gradientUnits="userSpaceOnUse">
<stop stop-color="#F4A984"/>
<stop offset="1" stop-color="#EE4D47"/>
</linearGradient>
<linearGradient id="paint6_linear_954_4090" x1="302.461" y1="83.1273" x2="284.288" y2="91.1379" gradientUnits="userSpaceOnUse">
<stop stop-color="#FFB3B6"/>
<stop offset="1" stop-color="#FFC8C1"/>
</linearGradient>
<linearGradient id="paint7_linear_954_4090" x1="302.823" y1="74.2457" x2="284.543" y2="82.1577" gradientUnits="userSpaceOnUse">
<stop stop-color="#FFB3B6" stop-opacity="0.31"/>
<stop offset="1" stop-color="#FFC8C1"/>
</linearGradient>
<linearGradient id="paint8_linear_954_4090" x1="264.213" y1="69.8359" x2="267.962" y2="35.5939" gradientUnits="userSpaceOnUse">
<stop stop-color="#FFB3B6"/>
<stop offset="1" stop-color="#FFC8C1"/>
</linearGradient>
<linearGradient id="paint9_linear_954_4090" x1="255.179" y1="74.4025" x2="255.179" y2="178.665" gradientUnits="userSpaceOnUse">
<stop stop-color="#FFB3B6"/>
<stop offset="1" stop-color="#FFC8C1"/>
</linearGradient>
<linearGradient id="paint10_linear_954_4090" x1="232.661" y1="121.271" x2="270.517" y2="178.107" gradientUnits="userSpaceOnUse">
<stop stop-color="#F4A984"/>
<stop offset="0.91698" stop-color="#EE4D47"/>
</linearGradient>
<linearGradient id="paint11_linear_954_4090" x1="277.726" y1="93.7132" x2="291.952" y2="68.7878" gradientUnits="userSpaceOnUse">
<stop stop-color="#FFB3B6"/>
<stop offset="1" stop-color="#FFC8C1"/>
</linearGradient>
<linearGradient id="paint12_linear_954_4090" x1="295.261" y1="-17.8134" x2="295.261" y2="33.6557" gradientUnits="userSpaceOnUse">
<stop stop-color="#F4A984"/>
<stop offset="1" stop-color="#EE4D47"/>
</linearGradient>
<linearGradient id="paint13_linear_954_4090" x1="296.636" y1="9.1975" x2="296.636" y2="62.7049" gradientUnits="userSpaceOnUse">
<stop stop-color="#F4A984"/>
<stop offset="1" stop-color="#EE4D47"/>
</linearGradient>
<linearGradient id="paint14_linear_954_4090" x1="321.635" y1="146.786" x2="228.303" y2="178.582" gradientUnits="userSpaceOnUse">
<stop stop-color="#FFB3B6"/>
<stop offset="1" stop-color="#FFC8C1"/>
</linearGradient>
<linearGradient id="paint15_linear_954_4090" x1="294.101" y1="125.858" x2="332.482" y2="185.214" gradientUnits="userSpaceOnUse">
<stop stop-color="#F4A984"/>
<stop offset="1" stop-color="#EE4D47"/>
</linearGradient>
<linearGradient id="paint16_linear_954_4090" x1="34.2844" y1="-87.6029" x2="220.702" y2="190.197" gradientUnits="userSpaceOnUse">
<stop stop-color="#F4A984"/>
<stop offset="1" stop-color="#EE4D47"/>
</linearGradient>
</defs>
</svg>
