<svg width="30" height="30" viewBox="0 0 30 30" fill="none" xmlns="http://www.w3.org/2000/svg">
<circle cx="15.3656" cy="14.6357" r="14.6352" fill="#ED4D47"/>
<path d="M15.3663 11.3005C13.5205 11.3005 12.0317 12.7897 12.0317 14.6359C12.0317 16.4821 13.5205 17.9712 15.3663 17.9712C17.2121 17.9712 18.7009 16.4821 18.7009 14.6359C18.7009 12.7897 17.2121 11.3005 15.3663 11.3005ZM15.3663 16.8043C14.1735 16.8043 13.1984 15.8318 13.1984 14.6359C13.1984 13.4399 14.1706 12.4675 15.3663 12.4675C16.562 12.4675 17.5343 13.4399 17.5343 14.6359C17.5343 15.8318 16.5591 16.8043 15.3663 16.8043ZM19.6151 11.1641C19.6151 11.5966 19.2669 11.942 18.8373 11.942C18.4049 11.942 18.0595 11.5937 18.0595 11.1641C18.0595 10.7345 18.4078 10.3861 18.8373 10.3861C19.2669 10.3861 19.6151 10.7345 19.6151 11.1641ZM21.8237 11.9537C21.7743 10.9115 21.5364 9.98843 20.7731 9.22789C20.0127 8.46735 19.0898 8.22932 18.0479 8.17707C16.9741 8.11611 13.7556 8.11611 12.6818 8.17707C11.6428 8.22642 10.7199 8.46445 9.95665 9.22499C9.19338 9.98553 8.9583 10.9086 8.90606 11.9507C8.84512 13.0248 8.84512 16.244 8.90606 17.3181C8.9554 18.3602 9.19338 19.2833 9.95665 20.0438C10.7199 20.8044 11.6399 21.0424 12.6818 21.0947C13.7556 21.1556 16.9741 21.1556 18.0479 21.0947C19.0898 21.0453 20.0127 20.8073 20.7731 20.0438C21.5335 19.2833 21.7714 18.3602 21.8237 17.3181C21.8846 16.244 21.8846 13.0277 21.8237 11.9537ZM20.4364 18.4705C20.2101 19.0395 19.7718 19.4778 19.2001 19.7071C18.344 20.0467 16.3124 19.9684 15.3663 19.9684C14.4202 19.9684 12.3858 20.0438 11.5325 19.7071C10.9637 19.4807 10.5255 19.0424 10.2962 18.4705C9.95665 17.6142 10.035 15.5822 10.035 14.6359C10.035 13.6895 9.95955 11.6547 10.2962 10.8012C10.5226 10.2323 10.9608 9.79394 11.5325 9.56462C12.3887 9.22499 14.4202 9.30337 15.3663 9.30337C16.3124 9.30337 18.3469 9.22789 19.2001 9.56462C19.7689 9.79104 20.2072 10.2294 20.4364 10.8012C20.776 11.6576 20.6976 13.6895 20.6976 14.6359C20.6976 15.5822 20.776 17.6171 20.4364 18.4705Z" fill="white"/>
</svg>
