<svg width="76" height="46" viewBox="0 0 76 46" fill="none" xmlns="http://www.w3.org/2000/svg">
<path d="M34.1072 22.6146C34.1072 28.7571 29.1277 33.7366 22.9852 33.7366C16.8427 33.7366 11.8633 28.7571 11.8633 22.6146C11.8633 16.4721 16.8427 11.4927 22.9852 11.4927C29.1277 11.4927 34.1072 16.4721 34.1072 22.6146ZM17.6908 22.6146C17.6908 25.5386 20.0612 27.909 22.9852 27.909C25.9092 27.909 28.2796 25.5386 28.2796 22.6146C28.2796 19.6906 25.9092 17.3202 22.9852 17.3202C20.0612 17.3202 17.6908 19.6906 17.6908 22.6146Z" fill="#00FF38"/>
<circle cx="22.9858" cy="22.6147" r="5.56098" fill="#2C35CB"/>
<path d="M7.27982 20.4311C7.21347 20.2004 7.12026 19.9966 7.00019 19.8197C6.88013 19.6396 6.7332 19.4879 6.55942 19.3647C6.3888 19.2383 6.19291 19.142 5.97173 19.0756C5.75371 19.0093 5.512 18.9761 5.24659 18.9761C4.75053 18.9761 4.3145 19.0993 3.9385 19.3458C3.56566 19.5922 3.27497 19.9508 3.06644 20.4216C2.8579 20.8892 2.75363 21.4611 2.75363 22.1373C2.75363 22.8135 2.85632 23.3885 3.0617 23.8625C3.26707 24.3364 3.55776 24.6982 3.93376 24.9478C4.30976 25.1943 4.75369 25.3175 5.26555 25.3175C5.73002 25.3175 6.12655 25.2353 6.45516 25.071C6.78692 24.9036 7.03969 24.6682 7.21347 24.3649C7.39041 24.0615 7.47888 23.7029 7.47888 23.289L7.89595 23.3506H5.39351V21.8055H9.45524V23.0283C9.45524 23.8814 9.27514 24.6145 8.91494 25.2274C8.55474 25.8373 8.05868 26.308 7.42675 26.6398C6.79482 26.9684 6.07126 27.1327 5.25607 27.1327C4.34609 27.1327 3.5467 26.9321 2.8579 26.5308C2.1691 26.1264 1.63196 25.5529 1.24648 24.8104C0.864163 24.0647 0.673004 23.18 0.673004 22.1563C0.673004 21.3695 0.786752 20.6681 1.01425 20.0519C1.2449 19.4326 1.56718 18.9081 1.9811 18.4784C2.39501 18.0487 2.87686 17.7217 3.42664 17.4974C3.97641 17.273 4.57201 17.1609 5.21341 17.1609C5.76319 17.1609 6.27506 17.2414 6.749 17.4026C7.22295 17.5606 7.64318 17.7849 8.0097 18.0756C8.37938 18.3663 8.68113 18.7122 8.91494 19.1135C9.14875 19.5116 9.29884 19.9508 9.36519 20.4311H7.27982ZM35.3387 18.9856V17.2936H43.3104V18.9856H40.3388V27H38.3103V18.9856H35.3387ZM43.8294 27V19.7202H45.7868V20.9904H45.8626C45.9954 20.5385 46.2181 20.1973 46.5309 19.9666C46.8437 19.7328 47.2039 19.6159 47.6115 19.6159C47.7126 19.6159 47.8216 19.6222 47.9385 19.6349C48.0554 19.6475 48.1581 19.6649 48.2466 19.687V21.4785C48.1518 21.4501 48.0207 21.4248 47.8532 21.4027C47.6858 21.3806 47.5325 21.3695 47.3935 21.3695C47.0965 21.3695 46.8311 21.4343 46.5973 21.5638C46.3666 21.6902 46.1833 21.8672 46.0475 22.0947C45.9148 22.3221 45.8484 22.5844 45.8484 22.8814V27H43.8294ZM53.9588 23.9004V19.7202H55.9779V27H54.0394V25.6777H53.9636C53.7993 26.1042 53.526 26.4471 53.1437 26.7062C52.7645 26.9652 52.3016 27.0948 51.755 27.0948C51.2684 27.0948 50.8403 26.9842 50.4706 26.763C50.1009 26.5419 49.8118 26.2275 49.6033 25.8199C49.3979 25.4123 49.2936 24.9241 49.2905 24.3554V19.7202H51.3095V23.9952C51.3126 24.4249 51.428 24.7646 51.6555 25.0142C51.883 25.2638 52.1879 25.3886 52.5702 25.3886C52.8135 25.3886 53.041 25.3333 53.2527 25.2227C53.4644 25.109 53.635 24.9415 53.7645 24.7203C53.8972 24.4991 53.962 24.2258 53.9588 23.9004ZM60.882 27.1422C60.1363 27.1422 59.4949 26.9842 58.9578 26.6682C58.4238 26.3491 58.0131 25.9068 57.7255 25.3412C57.4412 24.7756 57.299 24.1247 57.299 23.3885C57.299 22.6428 57.4427 21.9888 57.7303 21.4264C58.021 20.8608 58.4333 20.42 58.9673 20.1041C59.5013 19.7849 60.1363 19.6254 60.8725 19.6254C61.5076 19.6254 62.0637 19.7407 62.5408 19.9714C63.0179 20.202 63.3955 20.5259 63.6736 20.943C63.9516 21.36 64.1049 21.8498 64.1333 22.4122H62.228C62.1743 22.0488 62.0321 21.7566 61.8015 21.5354C61.574 21.3111 61.2754 21.1989 60.9057 21.1989C60.5929 21.1989 60.3196 21.2842 60.0858 21.4548C59.8551 21.6223 59.675 21.8672 59.5455 22.1894C59.4159 22.5117 59.3512 22.9019 59.3512 23.3601C59.3512 23.8246 59.4144 24.2195 59.5408 24.545C59.6703 24.8704 59.852 25.1184 60.0858 25.2891C60.3196 25.4597 60.5929 25.545 60.9057 25.545C61.1364 25.545 61.3433 25.4976 61.5266 25.4028C61.713 25.308 61.8663 25.1706 61.9863 24.9905C62.1095 24.8072 62.1901 24.5876 62.228 24.3317H64.1333C64.1017 24.8878 63.95 25.3775 63.6783 25.8009C63.4097 26.2211 63.0385 26.5498 62.5645 26.7867C62.0906 27.0237 61.5297 27.1422 60.882 27.1422ZM67.2554 24.9052L67.2602 22.4833H67.554L69.8858 19.7202H72.2034L69.0706 23.379H68.592L67.2554 24.9052ZM65.426 27V17.2936H67.445V27H65.426ZM69.9759 27L67.8336 23.8293L69.1796 22.4027L72.3409 27H69.9759Z" fill="white"/>
</svg>
